<?xml version="1.0" standalone="no"?><!DOCTYPE svg PUBLIC "-//W3C//DTD SVG 1.1//EN" "http://www.w3.org/Graphics/SVG/1.1/DTD/svg11.dtd"><svg height="357" node-id="1" sillyvg="true" template-height="357" template-width="710" version="1.1" viewBox="0 0 710 357" width="710" xmlns="http://www.w3.org/2000/svg" xmlns:xlink="http://www.w3.org/1999/xlink"><defs node-id="42"><clipPath id="mask-2_12" node-id="11"><path d="M 624.00 176.50 L 623.72 186.24 L 622.95 195.76 L 621.69 205.08 L 619.95 214.21 L 617.73 223.15 L 615.02 232.03 L 611.90 240.65 L 608.36 249.02 L 604.41 257.16 L 600.04 265.08 L 595.25 272.78 L 590.12 280.17 L 584.64 287.27 L 578.80 294.07 L 572.60 300.60 L 566.07 306.80 L 559.27 312.64 L 552.17 318.12 L 544.78 323.25 L 537.08 328.04 L 529.16 332.41 L 521.02 336.36 L 512.65 339.90 L 504.03 343.02 L 495.15 345.73 L 486.21 347.95 L 477.08 349.69 L 467.76 350.95 L 458.24 351.72 L 448.50 352.00 L 438.76 351.72 L 429.24 350.95 L 419.92 349.69 L 410.79 347.95 L 401.85 345.73 L 392.97 343.02 L 384.35 339.90 L 375.98 336.36 L 367.84 332.41 L 359.92 328.04 L 352.22 323.25 L 344.83 318.12 L 337.73 312.64 L 330.93 306.80 L 324.40 300.60 L 318.20 294.07 L 312.36 287.27 L 306.88 280.17 L 301.75 272.78 L 296.96 265.08 L 292.59 257.16 L 288.64 249.02 L 285.10 240.65 L 281.98 232.03 L 279.27 223.15 L 277.05 214.21 L 275.31 205.08 L 274.05 195.76 L 273.28 186.24 L 273.00 176.50 L 273.28 166.76 L 274.05 157.24 L 275.31 147.92 L 277.05 138.79 L 279.27 129.85 L 281.98 120.97 L 285.10 112.35 L 288.64 103.98 L 292.59 95.84 L 296.96 87.92 L 301.75 80.22 L 306.88 72.83 L 312.36 65.73 L 318.20 58.93 L 324.40 52.40 L 330.93 46.20 L 337.73 40.36 L 344.83 34.88 L 352.22 29.75 L 359.92 24.96 L 367.84 20.59 L 375.98 16.64 L 384.35 13.10 L 392.97 9.98 L 401.85 7.27 L 410.79 5.05 L 419.92 3.31 L 429.24 2.05 L 438.76 1.28 L 448.50 1.00 L 458.24 1.28 L 467.76 2.05 L 477.08 3.31 L 486.21 5.05 L 495.15 7.27 L 504.03 9.98 L 512.65 13.10 L 521.02 16.64 L 529.16 20.59 L 537.08 24.96 L 544.78 29.75 L 552.17 34.88 L 559.27 40.36 L 566.07 46.20 L 572.60 52.40 L 578.80 58.93 L 584.64 65.73 L 590.12 72.83 L 595.25 80.22 L 600.04 87.92 L 604.41 95.84 L 608.36 103.98 L 611.90 112.35 L 615.02 120.97 L 617.73 129.85 L 619.95 138.79 L 621.69 147.92 L 622.95 157.24 L 623.72 166.76 L 624.00 176.50 Z" fill="#000000" fill-rule="evenodd" node-id="47" stroke="none" target-height="351" target-width="351" target-x="273" target-y="1"></path></clipPath><clipPath id="mask-2_11" node-id="11"><path d="M 624.00 176.50 L 623.72 186.24 L 622.95 195.76 L 621.69 205.08 L 619.95 214.21 L 617.73 223.15 L 615.02 232.03 L 611.90 240.65 L 608.36 249.02 L 604.41 257.16 L 600.04 265.08 L 595.25 272.78 L 590.12 280.17 L 584.64 287.27 L 578.80 294.07 L 572.60 300.60 L 566.07 306.80 L 559.27 312.64 L 552.17 318.12 L 544.78 323.25 L 537.08 328.04 L 529.16 332.41 L 521.02 336.36 L 512.65 339.90 L 504.03 343.02 L 495.15 345.73 L 486.21 347.95 L 477.08 349.69 L 467.76 350.95 L 458.24 351.72 L 448.50 352.00 L 438.76 351.72 L 429.24 350.95 L 419.92 349.69 L 410.79 347.95 L 401.85 345.73 L 392.97 343.02 L 384.35 339.90 L 375.98 336.36 L 367.84 332.41 L 359.92 328.04 L 352.22 323.25 L 344.83 318.12 L 337.73 312.64 L 330.93 306.80 L 324.40 300.60 L 318.20 294.07 L 312.36 287.27 L 306.88 280.17 L 301.75 272.78 L 296.96 265.08 L 292.59 257.16 L 288.64 249.02 L 285.10 240.65 L 281.98 232.03 L 279.27 223.15 L 277.05 214.21 L 275.31 205.08 L 274.05 195.76 L 273.28 186.24 L 273.00 176.50 L 273.28 166.76 L 274.05 157.24 L 275.31 147.92 L 277.05 138.79 L 279.27 129.85 L 281.98 120.97 L 285.10 112.35 L 288.64 103.98 L 292.59 95.84 L 296.96 87.92 L 301.75 80.22 L 306.88 72.83 L 312.36 65.73 L 318.20 58.93 L 324.40 52.40 L 330.93 46.20 L 337.73 40.36 L 344.83 34.88 L 352.22 29.75 L 359.92 24.96 L 367.84 20.59 L 375.98 16.64 L 384.35 13.10 L 392.97 9.98 L 401.85 7.27 L 410.79 5.05 L 419.92 3.31 L 429.24 2.05 L 438.76 1.28 L 448.50 1.00 L 458.24 1.28 L 467.76 2.05 L 477.08 3.31 L 486.21 5.05 L 495.15 7.27 L 504.03 9.98 L 512.65 13.10 L 521.02 16.64 L 529.16 20.59 L 537.08 24.96 L 544.78 29.75 L 552.17 34.88 L 559.27 40.36 L 566.07 46.20 L 572.60 52.40 L 578.80 58.93 L 584.64 65.73 L 590.12 72.83 L 595.25 80.22 L 600.04 87.92 L 604.41 95.84 L 608.36 103.98 L 611.90 112.35 L 615.02 120.97 L 617.73 129.85 L 619.95 138.79 L 621.69 147.92 L 622.95 157.24 L 623.72 166.76 L 624.00 176.50 Z" fill="#000000" fill-rule="evenodd" node-id="47" stroke="none" target-height="351" target-width="351" target-x="273" target-y="1"></path></clipPath><clipPath id="mask-2_10" node-id="11"><path d="M 624.00 176.50 L 623.72 186.24 L 622.95 195.76 L 621.69 205.08 L 619.95 214.21 L 617.73 223.15 L 615.02 232.03 L 611.90 240.65 L 608.36 249.02 L 604.41 257.16 L 600.04 265.08 L 595.25 272.78 L 590.12 280.17 L 584.64 287.27 L 578.80 294.07 L 572.60 300.60 L 566.07 306.80 L 559.27 312.64 L 552.17 318.12 L 544.78 323.25 L 537.08 328.04 L 529.16 332.41 L 521.02 336.36 L 512.65 339.90 L 504.03 343.02 L 495.15 345.73 L 486.21 347.95 L 477.08 349.69 L 467.76 350.95 L 458.24 351.72 L 448.50 352.00 L 438.76 351.72 L 429.24 350.95 L 419.92 349.69 L 410.79 347.95 L 401.85 345.73 L 392.97 343.02 L 384.35 339.90 L 375.98 336.36 L 367.84 332.41 L 359.92 328.04 L 352.22 323.25 L 344.83 318.12 L 337.73 312.64 L 330.93 306.80 L 324.40 300.60 L 318.20 294.07 L 312.36 287.27 L 306.88 280.17 L 301.75 272.78 L 296.96 265.08 L 292.59 257.16 L 288.64 249.02 L 285.10 240.65 L 281.98 232.03 L 279.27 223.15 L 277.05 214.21 L 275.31 205.08 L 274.05 195.76 L 273.28 186.24 L 273.00 176.50 L 273.28 166.76 L 274.05 157.24 L 275.31 147.92 L 277.05 138.79 L 279.27 129.85 L 281.98 120.97 L 285.10 112.35 L 288.64 103.98 L 292.59 95.84 L 296.96 87.92 L 301.75 80.22 L 306.88 72.83 L 312.36 65.73 L 318.20 58.93 L 324.40 52.40 L 330.93 46.20 L 337.73 40.36 L 344.83 34.88 L 352.22 29.75 L 359.92 24.96 L 367.84 20.59 L 375.98 16.64 L 384.35 13.10 L 392.97 9.98 L 401.85 7.27 L 410.79 5.05 L 419.92 3.31 L 429.24 2.05 L 438.76 1.28 L 448.50 1.00 L 458.24 1.28 L 467.76 2.05 L 477.08 3.31 L 486.21 5.05 L 495.15 7.27 L 504.03 9.98 L 512.65 13.10 L 521.02 16.64 L 529.16 20.59 L 537.08 24.96 L 544.78 29.75 L 552.17 34.88 L 559.27 40.36 L 566.07 46.20 L 572.60 52.40 L 578.80 58.93 L 584.64 65.73 L 590.12 72.83 L 595.25 80.22 L 600.04 87.92 L 604.41 95.84 L 608.36 103.98 L 611.90 112.35 L 615.02 120.97 L 617.73 129.85 L 619.95 138.79 L 621.69 147.92 L 622.95 157.24 L 623.72 166.76 L 624.00 176.50 Z" fill="#000000" fill-rule="evenodd" node-id="47" stroke="none" target-height="351" target-width="351" target-x="273" target-y="1"></path></clipPath><clipPath id="mask-2_9" node-id="11"><path d="M 624.00 176.50 L 623.72 186.24 L 622.95 195.76 L 621.69 205.08 L 619.95 214.21 L 617.73 223.15 L 615.02 232.03 L 611.90 240.65 L 608.36 249.02 L 604.41 257.16 L 600.04 265.08 L 595.25 272.78 L 590.12 280.17 L 584.64 287.27 L 578.80 294.07 L 572.60 300.60 L 566.07 306.80 L 559.27 312.64 L 552.17 318.12 L 544.78 323.25 L 537.08 328.04 L 529.16 332.41 L 521.02 336.36 L 512.65 339.90 L 504.03 343.02 L 495.15 345.73 L 486.21 347.95 L 477.08 349.69 L 467.76 350.95 L 458.24 351.72 L 448.50 352.00 L 438.76 351.72 L 429.24 350.95 L 419.92 349.69 L 410.79 347.95 L 401.85 345.73 L 392.97 343.02 L 384.35 339.90 L 375.98 336.36 L 367.84 332.41 L 359.92 328.04 L 352.22 323.25 L 344.83 318.12 L 337.73 312.64 L 330.93 306.80 L 324.40 300.60 L 318.20 294.07 L 312.36 287.27 L 306.88 280.17 L 301.75 272.78 L 296.96 265.08 L 292.59 257.16 L 288.64 249.02 L 285.10 240.65 L 281.98 232.03 L 279.27 223.15 L 277.05 214.21 L 275.31 205.08 L 274.05 195.76 L 273.28 186.24 L 273.00 176.50 L 273.28 166.76 L 274.05 157.24 L 275.31 147.92 L 277.05 138.79 L 279.27 129.85 L 281.98 120.97 L 285.10 112.35 L 288.64 103.98 L 292.59 95.84 L 296.96 87.92 L 301.75 80.22 L 306.88 72.83 L 312.36 65.73 L 318.20 58.93 L 324.40 52.40 L 330.93 46.20 L 337.73 40.36 L 344.83 34.88 L 352.22 29.75 L 359.92 24.96 L 367.84 20.59 L 375.98 16.64 L 384.35 13.10 L 392.97 9.98 L 401.85 7.27 L 410.79 5.05 L 419.92 3.31 L 429.24 2.05 L 438.76 1.28 L 448.50 1.00 L 458.24 1.28 L 467.76 2.05 L 477.08 3.31 L 486.21 5.05 L 495.15 7.27 L 504.03 9.98 L 512.65 13.10 L 521.02 16.64 L 529.16 20.59 L 537.08 24.96 L 544.78 29.75 L 552.17 34.88 L 559.27 40.36 L 566.07 46.20 L 572.60 52.40 L 578.80 58.93 L 584.64 65.73 L 590.12 72.83 L 595.25 80.22 L 600.04 87.92 L 604.41 95.84 L 608.36 103.98 L 611.90 112.35 L 615.02 120.97 L 617.73 129.85 L 619.95 138.79 L 621.69 147.92 L 622.95 157.24 L 623.72 166.76 L 624.00 176.50 Z" fill="#000000" fill-rule="evenodd" node-id="47" stroke="none" target-height="351" target-width="351" target-x="273" target-y="1"></path></clipPath><clipPath id="mask-2_8" node-id="11"><path d="M 543.45 190.42 L 537.50 198.13 L 531.27 205.38 L 524.78 212.18 L 518.01 218.54 L 510.95 224.48 L 503.54 230.07 L 495.95 235.20 L 488.17 239.90 L 480.19 244.16 L 472.00 247.99 L 463.60 251.41 L 455.10 254.37 L 446.49 256.89 L 437.77 258.97 L 428.92 260.60 L 419.99 261.78 L 411.06 262.50 L 402.10 262.77 L 393.10 262.58 L 384.05 261.92 L 375.08 260.81 L 366.17 259.22 L 357.32 257.16 L 348.51 254.62 L 339.74 251.59 L 331.19 248.13 L 322.79 244.17 L 314.51 239.72 L 306.35 234.74 L 298.31 229.24 L 290.59 223.29 L 283.34 217.07 L 276.54 210.57 L 270.18 203.80 L 264.25 196.75 L 258.66 189.34 L 253.52 181.75 L 248.83 173.96 L 244.56 165.98 L 240.73 157.79 L 237.31 149.39 L 234.35 140.89 L 231.83 132.29 L 229.76 123.57 L 228.13 114.71 L 226.94 105.79 L 226.22 96.85 L 225.96 87.89 L 226.15 78.89 L 226.80 69.85 L 227.92 60.87 L 229.50 51.97 L 231.56 43.12 L 234.10 34.31 L 237.13 25.53 L 240.60 16.99 L 244.55 8.58 L 249.01 0.31 L 253.98 -7.85 L 259.48 -15.90 L 265.43 -23.61 L 271.66 -30.86 L 278.15 -37.66 L 284.92 -44.02 L 291.98 -49.96 L 299.39 -55.55 L 306.98 -60.69 L 314.76 -65.38 L 322.74 -69.64 L 330.93 -73.47 L 339.33 -76.89 L 347.83 -79.85 L 356.43 -82.37 L 365.16 -84.45 L 374.01 -86.08 L 382.93 -87.26 L 391.87 -87.98 L 400.83 -88.25 L 409.83 -88.06 L 418.88 -87.40 L 427.85 -86.29 L 436.76 -84.70 L 445.61 -82.64 L 454.42 -80.10 L 463.19 -77.07 L 471.74 -73.61 L 480.14 -69.65 L 488.42 -65.20 L 496.58 -60.22 L 504.62 -54.72 L 512.34 -48.77 L 519.59 -42.55 L 526.38 -36.06 L 532.74 -29.28 L 538.68 -22.23 L 544.27 -14.82 L 549.41 -7.23 L 554.10 0.56 L 558.37 8.54 L 562.20 16.73 L 565.62 25.13 L 568.58 33.62 L 571.10 42.23 L 573.17 50.95 L 574.80 59.81 L 575.99 68.73 L 576.71 77.67 L 576.97 86.63 L 576.78 95.63 L 576.13 104.67 L 575.01 113.65 L 573.43 122.55 L 571.37 131.40 L 568.83 140.21 L 565.80 148.99 L 562.33 157.53 L 558.38 165.94 L 553.92 174.21 L 548.95 182.37 L 543.45 190.42 Z" fill="#000000" fill-rule="evenodd" node-id="47" stroke="none" target-height="351.01862" target-width="351.0186" target-x="225.95541" target-y="-88.24962"></path></clipPath><clipPath id="mask-2_7" node-id="11"><path d="M 624.00 176.50 L 623.72 186.24 L 622.95 195.76 L 621.69 205.08 L 619.95 214.21 L 617.73 223.15 L 615.02 232.03 L 611.90 240.65 L 608.36 249.02 L 604.41 257.16 L 600.04 265.08 L 595.25 272.78 L 590.12 280.17 L 584.64 287.27 L 578.80 294.07 L 572.60 300.60 L 566.07 306.80 L 559.27 312.64 L 552.17 318.12 L 544.78 323.25 L 537.08 328.04 L 529.16 332.41 L 521.02 336.36 L 512.65 339.90 L 504.03 343.02 L 495.15 345.73 L 486.21 347.95 L 477.08 349.69 L 467.76 350.95 L 458.24 351.72 L 448.50 352.00 L 438.76 351.72 L 429.24 350.95 L 419.92 349.69 L 410.79 347.95 L 401.85 345.73 L 392.97 343.02 L 384.35 339.90 L 375.98 336.36 L 367.84 332.41 L 359.92 328.04 L 352.22 323.25 L 344.83 318.12 L 337.73 312.64 L 330.93 306.80 L 324.40 300.60 L 318.20 294.07 L 312.36 287.27 L 306.88 280.17 L 301.75 272.78 L 296.96 265.08 L 292.59 257.16 L 288.64 249.02 L 285.10 240.65 L 281.98 232.03 L 279.27 223.15 L 277.05 214.21 L 275.31 205.08 L 274.05 195.76 L 273.28 186.24 L 273.00 176.50 L 273.28 166.76 L 274.05 157.24 L 275.31 147.92 L 277.05 138.79 L 279.27 129.85 L 281.98 120.97 L 285.10 112.35 L 288.64 103.98 L 292.59 95.84 L 296.96 87.92 L 301.75 80.22 L 306.88 72.83 L 312.36 65.73 L 318.20 58.93 L 324.40 52.40 L 330.93 46.20 L 337.73 40.36 L 344.83 34.88 L 352.22 29.75 L 359.92 24.96 L 367.84 20.59 L 375.98 16.64 L 384.35 13.10 L 392.97 9.98 L 401.85 7.27 L 410.79 5.05 L 419.92 3.31 L 429.24 2.05 L 438.76 1.28 L 448.50 1.00 L 458.24 1.28 L 467.76 2.05 L 477.08 3.31 L 486.21 5.05 L 495.15 7.27 L 504.03 9.98 L 512.65 13.10 L 521.02 16.64 L 529.16 20.59 L 537.08 24.96 L 544.78 29.75 L 552.17 34.88 L 559.27 40.36 L 566.07 46.20 L 572.60 52.40 L 578.80 58.93 L 584.64 65.73 L 590.12 72.83 L 595.25 80.22 L 600.04 87.92 L 604.41 95.84 L 608.36 103.98 L 611.90 112.35 L 615.02 120.97 L 617.73 129.85 L 619.95 138.79 L 621.69 147.92 L 622.95 157.24 L 623.72 166.76 L 624.00 176.50 Z" fill="#000000" fill-rule="evenodd" node-id="47" stroke="none" target-height="351" target-width="351" target-x="273" target-y="1"></path></clipPath><clipPath id="mask-2" node-id="11"><path d="M 351.00 175.50 C 351.00 272.43 272.43 351.00 175.50 351.00 C 78.57 351.00 0.00 272.43 0.00 175.50 C -0.00 78.57 78.57 0.00 175.50 0.00 C 272.43 -0.00 351.00 78.57 351.00 175.50 Z" fill="#000000" fill-rule="evenodd" node-id="47" stroke="none" target-height="351" target-width="351" target-x="0" target-y="0"></path></clipPath><clipPath id="mask-4_10" node-id="29"><path d="M 142.00 116.00 L 141.79 121.07 L 141.19 125.96 L 140.23 130.69 L 138.89 135.28 L 137.19 139.77 L 135.18 144.05 L 132.86 148.13 L 130.23 152.03 L 126.27 156.88 L 121.88 161.27 L 117.03 165.23 L 113.13 167.86 L 109.05 170.18 L 104.77 172.19 L 100.28 173.89 L 95.69 175.23 L 90.96 176.19 L 86.07 176.79 L 81.00 177.00 L 75.93 176.79 L 71.04 176.19 L 66.31 175.23 L 61.72 173.89 L 57.23 172.19 L 52.95 170.18 L 48.87 167.86 L 44.97 165.23 L 40.12 161.27 L 35.73 156.88 L 31.77 152.03 L 29.14 148.13 L 26.82 144.05 L 24.81 139.77 L 23.11 135.28 L 21.77 130.69 L 20.81 125.96 L 20.21 121.07 L 20.00 116.00 L 20.21 110.93 L 20.81 106.04 L 21.77 101.31 L 23.11 96.72 L 24.81 92.23 L 26.82 87.95 L 29.14 83.87 L 31.77 79.97 L 35.73 75.12 L 40.12 70.73 L 44.97 66.77 L 48.87 64.14 L 52.95 61.82 L 57.23 59.81 L 61.72 58.11 L 66.31 56.77 L 71.04 55.81 L 75.93 55.21 L 81.00 55.00 L 86.07 55.21 L 90.96 55.81 L 95.69 56.77 L 100.28 58.11 L 104.77 59.81 L 109.05 61.82 L 113.13 64.14 L 117.03 66.77 L 121.88 70.73 L 126.27 75.12 L 130.23 79.97 L 132.86 83.87 L 135.18 87.95 L 137.19 92.23 L 138.89 96.72 L 140.23 101.31 L 141.19 106.04 L 141.79 110.93 L 142.00 116.00 Z" fill="#000000" fill-rule="evenodd" node-id="54" stroke="none" target-height="122" target-width="122" target-x="20" target-y="55"></path></clipPath><clipPath id="mask-4_9" node-id="29"><path d="M 142.00 116.00 L 141.79 121.07 L 141.19 125.96 L 140.23 130.69 L 138.89 135.28 L 137.19 139.77 L 135.18 144.05 L 132.86 148.13 L 130.23 152.03 L 126.27 156.88 L 121.88 161.27 L 117.03 165.23 L 113.13 167.86 L 109.05 170.18 L 104.77 172.19 L 100.28 173.89 L 95.69 175.23 L 90.96 176.19 L 86.07 176.79 L 81.00 177.00 L 75.93 176.79 L 71.04 176.19 L 66.31 175.23 L 61.72 173.89 L 57.23 172.19 L 52.95 170.18 L 48.87 167.86 L 44.97 165.23 L 40.12 161.27 L 35.73 156.88 L 31.77 152.03 L 29.14 148.13 L 26.82 144.05 L 24.81 139.77 L 23.11 135.28 L 21.77 130.69 L 20.81 125.96 L 20.21 121.07 L 20.00 116.00 L 20.21 110.93 L 20.81 106.04 L 21.77 101.31 L 23.11 96.72 L 24.81 92.23 L 26.82 87.95 L 29.14 83.87 L 31.77 79.97 L 35.73 75.12 L 40.12 70.73 L 44.97 66.77 L 48.87 64.14 L 52.95 61.82 L 57.23 59.81 L 61.72 58.11 L 66.31 56.77 L 71.04 55.81 L 75.93 55.21 L 81.00 55.00 L 86.07 55.21 L 90.96 55.81 L 95.69 56.77 L 100.28 58.11 L 104.77 59.81 L 109.05 61.82 L 113.13 64.14 L 117.03 66.77 L 121.88 70.73 L 126.27 75.12 L 130.23 79.97 L 132.86 83.87 L 135.18 87.95 L 137.19 92.23 L 138.89 96.72 L 140.23 101.31 L 141.19 106.04 L 141.79 110.93 L 142.00 116.00 Z" fill="#000000" fill-rule="evenodd" node-id="54" stroke="none" target-height="122" target-width="122" target-x="20" target-y="55"></path></clipPath><clipPath id="mask-4_8" node-id="29"><path d="M 142.00 116.00 L 141.79 121.07 L 141.19 125.96 L 140.23 130.69 L 138.89 135.28 L 137.19 139.77 L 135.18 144.05 L 132.86 148.13 L 130.23 152.03 L 126.27 156.88 L 121.88 161.27 L 117.03 165.23 L 113.13 167.86 L 109.05 170.18 L 104.77 172.19 L 100.28 173.89 L 95.69 175.23 L 90.96 176.19 L 86.07 176.79 L 81.00 177.00 L 75.93 176.79 L 71.04 176.19 L 66.31 175.23 L 61.72 173.89 L 57.23 172.19 L 52.95 170.18 L 48.87 167.86 L 44.97 165.23 L 40.12 161.27 L 35.73 156.88 L 31.77 152.03 L 29.14 148.13 L 26.82 144.05 L 24.81 139.77 L 23.11 135.28 L 21.77 130.69 L 20.81 125.96 L 20.21 121.07 L 20.00 116.00 L 20.21 110.93 L 20.81 106.04 L 21.77 101.31 L 23.11 96.72 L 24.81 92.23 L 26.82 87.95 L 29.14 83.87 L 31.77 79.97 L 35.73 75.12 L 40.12 70.73 L 44.97 66.77 L 48.87 64.14 L 52.95 61.82 L 57.23 59.81 L 61.72 58.11 L 66.31 56.77 L 71.04 55.81 L 75.93 55.21 L 81.00 55.00 L 86.07 55.21 L 90.96 55.81 L 95.69 56.77 L 100.28 58.11 L 104.77 59.81 L 109.05 61.82 L 113.13 64.14 L 117.03 66.77 L 121.88 70.73 L 126.27 75.12 L 130.23 79.97 L 132.86 83.87 L 135.18 87.95 L 137.19 92.23 L 138.89 96.72 L 140.23 101.31 L 141.19 106.04 L 141.79 110.93 L 142.00 116.00 Z" fill="#000000" fill-rule="evenodd" node-id="54" stroke="none" target-height="122" target-width="122" target-x="20" target-y="55"></path></clipPath><clipPath id="mask-4_7" node-id="29"><path d="M 142.00 116.00 L 141.79 121.07 L 141.19 125.96 L 140.23 130.69 L 138.89 135.28 L 137.19 139.77 L 135.18 144.05 L 132.86 148.13 L 130.23 152.03 L 126.27 156.88 L 121.88 161.27 L 117.03 165.23 L 113.13 167.86 L 109.05 170.18 L 104.77 172.19 L 100.28 173.89 L 95.69 175.23 L 90.96 176.19 L 86.07 176.79 L 81.00 177.00 L 75.93 176.79 L 71.04 176.19 L 66.31 175.23 L 61.72 173.89 L 57.23 172.19 L 52.95 170.18 L 48.87 167.86 L 44.97 165.23 L 40.12 161.27 L 35.73 156.88 L 31.77 152.03 L 29.14 148.13 L 26.82 144.05 L 24.81 139.77 L 23.11 135.28 L 21.77 130.69 L 20.81 125.96 L 20.21 121.07 L 20.00 116.00 L 20.21 110.93 L 20.81 106.04 L 21.77 101.31 L 23.11 96.72 L 24.81 92.23 L 26.82 87.95 L 29.14 83.87 L 31.77 79.97 L 35.73 75.12 L 40.12 70.73 L 44.97 66.77 L 48.87 64.14 L 52.95 61.82 L 57.23 59.81 L 61.72 58.11 L 66.31 56.77 L 71.04 55.81 L 75.93 55.21 L 81.00 55.00 L 86.07 55.21 L 90.96 55.81 L 95.69 56.77 L 100.28 58.11 L 104.77 59.81 L 109.05 61.82 L 113.13 64.14 L 117.03 66.77 L 121.88 70.73 L 126.27 75.12 L 130.23 79.97 L 132.86 83.87 L 135.18 87.95 L 137.19 92.23 L 138.89 96.72 L 140.23 101.31 L 141.19 106.04 L 141.79 110.93 L 142.00 116.00 Z" fill="#000000" fill-rule="evenodd" node-id="54" stroke="none" target-height="122" target-width="122" target-x="20" target-y="55"></path></clipPath><clipPath id="mask-4_6" node-id="29"><path d="M 142.00 116.00 L 141.79 121.07 L 141.19 125.96 L 140.23 130.69 L 138.89 135.28 L 137.19 139.77 L 135.18 144.05 L 132.86 148.13 L 130.23 152.03 L 126.27 156.88 L 121.88 161.27 L 117.03 165.23 L 113.13 167.86 L 109.05 170.18 L 104.77 172.19 L 100.28 173.89 L 95.69 175.23 L 90.96 176.19 L 86.07 176.79 L 81.00 177.00 L 75.93 176.79 L 71.04 176.19 L 66.31 175.23 L 61.72 173.89 L 57.23 172.19 L 52.95 170.18 L 48.87 167.86 L 44.97 165.23 L 40.12 161.27 L 35.73 156.88 L 31.77 152.03 L 29.14 148.13 L 26.82 144.05 L 24.81 139.77 L 23.11 135.28 L 21.77 130.69 L 20.81 125.96 L 20.21 121.07 L 20.00 116.00 L 20.21 110.93 L 20.81 106.04 L 21.77 101.31 L 23.11 96.72 L 24.81 92.23 L 26.82 87.95 L 29.14 83.87 L 31.77 79.97 L 35.73 75.12 L 40.12 70.73 L 44.97 66.77 L 48.87 64.14 L 52.95 61.82 L 57.23 59.81 L 61.72 58.11 L 66.31 56.77 L 71.04 55.81 L 75.93 55.21 L 81.00 55.00 L 86.07 55.21 L 90.96 55.81 L 95.69 56.77 L 100.28 58.11 L 104.77 59.81 L 109.05 61.82 L 113.13 64.14 L 117.03 66.77 L 121.88 70.73 L 126.27 75.12 L 130.23 79.97 L 132.86 83.87 L 135.18 87.95 L 137.19 92.23 L 138.89 96.72 L 140.23 101.31 L 141.19 106.04 L 141.79 110.93 L 142.00 116.00 Z" fill="#000000" fill-rule="evenodd" node-id="54" stroke="none" target-height="122" target-width="122" target-x="20" target-y="55"></path></clipPath><clipPath id="mask-4" node-id="29"><path d="M 122.00 61.00 C 122.00 94.69 94.69 122.00 61.00 122.00 C 27.31 122.00 0.00 94.69 0.00 61.00 C -0.00 27.31 27.31 0.00 61.00 0.00 C 94.69 -0.00 122.00 27.31 122.00 61.00 Z" fill="#000000" fill-rule="evenodd" node-id="54" stroke="none" target-height="122" target-width="122" target-x="0" target-y="0"></path></clipPath></defs><g node-id="130"><g node-id="131"><g node-id="132"><g node-id="135"><path d="M 624.00 176.50 L 623.72 186.24 L 622.95 195.76 L 621.69 205.08 L 619.95 214.21 L 617.73 223.15 L 615.02 232.03 L 611.90 240.65 L 608.36 249.02 L 604.41 257.16 L 600.04 265.08 L 595.25 272.78 L 590.12 280.17 L 584.64 287.27 L 578.80 294.07 L 572.60 300.60 L 566.07 306.80 L 559.27 312.64 L 552.17 318.12 L 544.78 323.25 L 537.08 328.04 L 529.16 332.41 L 521.02 336.36 L 512.65 339.90 L 504.03 343.02 L 495.15 345.73 L 486.21 347.95 L 477.08 349.69 L 467.76 350.95 L 458.24 351.72 L 448.50 352.00 L 438.76 351.72 L 429.24 350.95 L 419.92 349.69 L 410.79 347.95 L 401.85 345.73 L 392.97 343.02 L 384.35 339.90 L 375.98 336.36 L 367.84 332.41 L 359.92 328.04 L 352.22 323.25 L 344.83 318.12 L 337.73 312.64 L 330.93 306.80 L 324.40 300.60 L 318.20 294.07 L 312.36 287.27 L 306.88 280.17 L 301.75 272.78 L 296.96 265.08 L 292.59 257.16 L 288.64 249.02 L 285.10 240.65 L 281.98 232.03 L 279.27 223.15 L 277.05 214.21 L 275.31 205.08 L 274.05 195.76 L 273.28 186.24 L 273.00 176.50 L 273.28 166.76 L 274.05 157.24 L 275.31 147.92 L 277.05 138.79 L 279.27 129.85 L 281.98 120.97 L 285.10 112.35 L 288.64 103.98 L 292.59 95.84 L 296.96 87.92 L 301.75 80.22 L 306.88 72.83 L 312.36 65.73 L 318.20 58.93 L 324.40 52.40 L 330.93 46.20 L 337.73 40.36 L 344.83 34.88 L 352.22 29.75 L 359.92 24.96 L 367.84 20.59 L 375.98 16.64 L 384.35 13.10 L 392.97 9.98 L 401.85 7.27 L 410.79 5.05 L 419.92 3.31 L 429.24 2.05 L 438.76 1.28 L 448.50 1.00 L 458.24 1.28 L 467.76 2.05 L 477.08 3.31 L 486.21 5.05 L 495.15 7.27 L 504.03 9.98 L 512.65 13.10 L 521.02 16.64 L 529.16 20.59 L 537.08 24.96 L 544.78 29.75 L 552.17 34.88 L 559.27 40.36 L 566.07 46.20 L 572.60 52.40 L 578.80 58.93 L 584.64 65.73 L 590.12 72.83 L 595.25 80.22 L 600.04 87.92 L 604.41 95.84 L 608.36 103.98 L 611.90 112.35 L 615.02 120.97 L 617.73 129.85 L 619.95 138.79 L 621.69 147.92 L 622.95 157.24 L 623.72 166.76 L 624.00 176.50 Z" fill="#a0ffe7" fill-rule="evenodd" group-id="1,2,3,6" node-id="64" stroke="none" target-height="351" target-width="351" target-x="273" target-y="1"></path></g><g node-id="136"><g clip-path="url(#mask-2_7)" group-id="1,2,3,7" node-id="67"><path d="M 420.85 140.34 L 420.64 143.41 L 420.10 146.35 L 419.20 149.19 L 417.96 151.93 L 415.85 155.34 L 413.24 158.49 L 410.10 161.40 L 406.61 163.89 L 402.74 166.02 L 398.43 167.78 L 393.96 169.05 L 389.21 169.83 L 384.15 170.12 L 379.09 169.83 L 374.34 169.05 L 369.87 167.78 L 365.56 166.02 L 361.69 163.89 L 358.20 161.40 L 355.06 158.49 L 352.45 155.34 L 350.34 151.93 L 349.10 149.19 L 348.20 146.35 L 347.66 143.41 L 347.45 140.34 L 347.66 137.26 L 348.20 134.32 L 349.10 131.49 L 350.34 128.74 L 352.45 125.33 L 355.06 122.18 L 358.20 119.28 L 361.69 116.78 L 365.56 114.65 L 369.87 112.89 L 374.34 111.63 L 379.09 110.84 L 384.15 110.55 L 389.21 110.84 L 393.96 111.63 L 398.43 112.89 L 402.74 114.65 L 406.61 116.78 L 410.10 119.28 L 413.24 122.18 L 415.85 125.33 L 417.96 128.74 L 419.20 131.49 L 420.10 134.32 L 420.64 137.26 L 420.85 140.34 Z" fill="#ffdf80" fill-rule="evenodd" group-id="1,2,3,7" id="椭圆形" node-id="14" stroke="none" target-height="59.563637" target-width="73.39093" target-x="347.45453" target-y="110.55454"></path></g></g><g node-id="137"><g clip-path="url(#mask-2_8)" group-id="1,2,3,8" node-id="71"><path d="M 607.92 92.64 L 605.02 96.09 L 601.82 99.08 L 598.27 101.63 L 594.35 103.76 L 590.23 105.43 L 585.89 106.68 L 581.30 107.50 L 576.43 107.88 L 571.60 107.81 L 566.67 107.30 L 561.62 106.34 L 556.44 104.91 L 551.45 103.08 L 546.50 100.80 L 541.58 98.04 L 536.68 94.78 L 532.06 91.13 L 527.92 87.30 L 524.22 83.30 L 520.94 79.11 L 517.97 74.63 L 515.50 70.12 L 513.50 65.59 L 511.94 61.02 L 510.79 56.27 L 510.15 51.66 L 509.99 47.14 L 510.31 42.70 L 511.13 38.32 L 512.46 34.16 L 514.31 30.18 L 516.70 26.36 L 519.59 22.91 L 522.80 19.92 L 526.35 17.37 L 530.26 15.24 L 534.39 13.57 L 538.73 12.32 L 543.32 11.50 L 548.19 11.12 L 553.02 11.19 L 557.95 11.70 L 562.99 12.66 L 568.18 14.09 L 573.17 15.92 L 578.12 18.20 L 583.04 20.96 L 587.94 24.22 L 592.56 27.87 L 596.70 31.70 L 600.40 35.70 L 603.68 39.89 L 606.64 44.37 L 609.12 48.88 L 611.12 53.41 L 612.68 57.98 L 613.83 62.73 L 614.47 67.34 L 614.62 71.86 L 614.31 76.30 L 613.49 80.68 L 612.16 84.84 L 610.31 88.82 L 607.92 92.64 Z" fill="#ffdf80" fill-rule="evenodd" group-id="1,2,3,8" id="椭圆形" node-id="15" stroke="none" target-height="96.75421" target-width="104.628296" target-x="509.99493" target-y="11.12291"></path></g></g><g node-id="138"><g clip-path="url(#mask-2_9)" group-id="1,2,3,9" node-id="75"><path d="M 541.04 326.47 L 540.82 329.20 L 540.23 331.70 L 539.29 333.99 L 538.01 336.10 L 536.49 337.87 L 534.71 339.33 L 532.72 340.44 L 530.59 341.11 L 528.27 341.36 L 525.96 341.11 L 523.82 340.44 L 521.83 339.33 L 520.06 337.87 L 518.54 336.10 L 517.25 333.99 L 516.31 331.70 L 515.73 329.20 L 515.51 326.47 L 515.73 323.74 L 516.31 321.25 L 517.25 318.96 L 518.54 316.84 L 520.06 315.07 L 521.83 313.61 L 523.82 312.51 L 525.96 311.83 L 528.27 311.58 L 530.59 311.83 L 532.72 312.51 L 534.71 313.61 L 536.49 315.07 L 538.01 316.84 L 539.29 318.96 L 540.23 321.25 L 540.82 323.74 L 541.04 326.47 Z" fill="#57e3bf" fill-rule="evenodd" group-id="1,2,3,9" id="椭圆形" node-id="16" stroke="none" target-height="29.78183" target-width="25.527283" target-x="515.5091" target-y="311.58182"></path></g></g><g node-id="139"><g clip-path="url(#mask-2_10)" group-id="1,2,3,10" node-id="79"><path d="M 320.86 103.64 L 320.64 106.93 L 320.01 110.02 L 318.98 112.96 L 317.59 115.73 L 315.88 118.26 L 313.85 120.56 L 311.55 122.59 L 309.03 124.29 L 306.25 125.69 L 303.31 126.72 L 300.22 127.34 L 296.93 127.57 L 293.64 127.34 L 290.55 126.72 L 287.62 125.69 L 284.84 124.29 L 282.31 122.59 L 280.01 120.56 L 277.98 118.26 L 276.28 115.73 L 274.88 112.96 L 273.86 110.02 L 273.23 106.93 L 273.00 103.64 L 273.23 100.35 L 273.86 97.26 L 274.88 94.33 L 276.28 91.55 L 277.98 89.02 L 280.01 86.72 L 282.31 84.69 L 284.84 82.99 L 287.62 81.59 L 290.55 80.57 L 293.64 79.94 L 296.93 79.71 L 300.22 79.94 L 303.31 80.57 L 306.25 81.59 L 309.03 82.99 L 311.55 84.69 L 313.85 86.72 L 315.88 89.02 L 317.59 91.55 L 318.98 94.33 L 320.01 97.26 L 320.64 100.35 L 320.86 103.64 Z" fill="#ff6a6a" fill-rule="evenodd" group-id="1,2,3,10" id="椭圆形" node-id="17" stroke="none" target-height="47.863632" target-width="47.863647" target-x="273" target-y="79.70909"></path></g></g><g node-id="140"><g clip-path="url(#mask-2_11)" group-id="1,2,3,11" node-id="83"><path d="M 515.51 174.90 L 515.30 177.14 L 514.74 179.18 L 513.84 181.08 L 512.62 182.79 L 511.17 184.25 L 509.45 185.47 L 507.56 186.37 L 505.51 186.93 L 503.28 187.14 L 501.04 186.93 L 499.00 186.37 L 497.10 185.47 L 495.39 184.25 L 493.93 182.79 L 492.72 181.08 L 491.81 179.18 L 491.25 177.14 L 491.05 174.90 L 491.25 172.67 L 491.81 170.63 L 492.72 168.73 L 493.93 167.01 L 495.39 165.56 L 497.10 164.34 L 499.00 163.44 L 501.04 162.88 L 503.28 162.67 L 505.51 162.88 L 507.56 163.44 L 509.45 164.34 L 511.17 165.56 L 512.62 167.01 L 513.84 168.73 L 514.74 170.63 L 515.30 172.67 L 515.51 174.90 Z" fill="#ff6a6a" fill-rule="evenodd" group-id="1,2,3,11" id="椭圆形" node-id="18" stroke="none" target-height="24.463638" target-width="24.463623" target-x="491.04547" target-y="162.67273"></path></g></g><g clip-path="url(#mask-2_12)" group-id="1,2,3,12" node-id="87"><path d="M 388.94 255.21 L 388.71 257.33 L 388.11 259.29 L 387.12 261.11 L 385.81 262.74 L 384.23 264.14 L 382.35 265.31 L 380.30 266.17 L 378.08 266.71 L 375.64 266.91 L 373.20 266.71 L 370.98 266.17 L 368.93 265.31 L 367.05 264.14 L 365.47 262.74 L 364.16 261.11 L 363.17 259.29 L 362.57 257.33 L 362.35 255.21 L 362.57 253.08 L 363.17 251.13 L 364.16 249.30 L 365.47 247.68 L 367.05 246.28 L 368.93 245.11 L 370.98 244.25 L 373.20 243.71 L 375.64 243.51 L 378.08 243.71 L 380.30 244.25 L 382.35 245.11 L 384.23 246.28 L 385.81 247.68 L 387.12 249.30 L 388.11 251.13 L 388.71 253.08 L 388.94 255.21 Z" fill="#57e3bf" fill-rule="evenodd" group-id="1,2,3,12" id="椭圆形" node-id="19" stroke="none" target-height="23.399994" target-width="26.590912" target-x="362.34546" target-y="243.5091"></path></g></g><path d="M 457.50 6.00 L 467.24 6.28 L 476.76 7.05 L 486.08 8.31 L 495.21 10.05 L 504.15 12.27 L 513.03 14.98 L 521.65 18.10 L 530.02 21.64 L 538.16 25.59 L 546.08 29.96 L 553.78 34.75 L 561.17 39.88 L 568.27 45.36 L 575.07 51.20 L 581.60 57.40 L 587.80 63.93 L 593.64 70.73 L 599.12 77.83 L 604.25 85.22 L 609.04 92.92 L 613.41 100.84 L 617.36 108.98 L 620.90 117.35 L 624.02 125.97 L 626.73 134.85 L 628.95 143.79 L 630.69 152.92 L 631.95 162.24 L 632.72 171.76 L 633.00 181.50 L 632.72 191.24 L 631.95 200.76 L 630.69 210.08 L 628.95 219.21 L 626.73 228.15 L 624.02 237.03 L 620.90 245.65 L 617.36 254.02 L 613.41 262.16 L 609.04 270.08 L 604.25 277.78 L 599.12 285.17 L 593.64 292.27 L 587.80 299.07 L 581.60 305.60 L 575.07 311.80 L 568.27 317.64 L 561.17 323.12 L 553.78 328.25 L 546.08 333.04 L 538.16 337.41 L 530.02 341.36 L 521.65 344.90 L 513.03 348.02 L 504.15 350.73 L 495.21 352.95 L 486.08 354.69 L 476.76 355.95 L 467.24 356.72 L 457.50 357.00 L 447.76 356.72 L 438.24 355.95 L 428.92 354.69 L 419.79 352.95 L 410.85 350.73 L 401.97 348.02 L 393.35 344.90 L 384.98 341.36 L 376.84 337.41 L 368.92 333.04 L 361.22 328.25 L 353.83 323.12 L 346.73 317.64 L 339.93 311.80 L 333.40 305.60 L 327.20 299.07 L 321.36 292.27 L 315.88 285.17 L 310.75 277.78 L 305.96 270.08 L 301.59 262.16 L 297.64 254.02 L 294.10 245.65 L 290.98 237.03 L 288.27 228.15 L 286.05 219.21 L 284.31 210.08 L 283.05 200.76 L 282.28 191.24 L 282.00 181.50 L 282.28 171.76 L 283.05 162.24 L 284.31 152.92 L 286.05 143.79 L 288.27 134.85 L 290.98 125.97 L 294.10 117.35 L 297.64 108.98 L 301.59 100.84 L 305.96 92.92 L 310.75 85.22 L 315.88 77.83 L 321.36 70.73 L 327.20 63.93 L 333.40 57.40 L 339.93 51.20 L 346.73 45.36 L 353.83 39.88 L 361.22 34.75 L 368.92 29.96 L 376.84 25.59 L 384.98 21.64 L 393.35 18.10 L 401.97 14.98 L 410.85 12.27 L 419.79 10.05 L 428.92 8.31 L 438.24 7.05 L 447.76 6.28 L 457.50 6.00 Z M 457.50 9.00 L 447.92 9.27 L 438.57 10.03 L 429.41 11.27 L 420.44 12.98 L 411.64 15.16 L 402.92 17.82 L 394.44 20.89 L 386.22 24.37 L 378.22 28.25 L 370.44 32.55 L 362.87 37.26 L 355.60 42.30 L 348.63 47.69 L 341.94 53.43 L 335.52 59.52 L 329.43 65.94 L 323.69 72.63 L 318.30 79.60 L 313.26 86.87 L 308.55 94.44 L 304.25 102.22 L 300.37 110.22 L 296.89 118.44 L 293.82 126.92 L 291.16 135.64 L 288.98 144.44 L 287.27 153.41 L 286.03 162.57 L 285.27 171.92 L 285.00 181.50 L 285.27 191.08 L 286.03 200.43 L 287.27 209.59 L 288.98 218.56 L 291.16 227.36 L 293.82 236.08 L 296.89 244.56 L 300.37 252.78 L 304.25 260.78 L 308.55 268.56 L 313.26 276.13 L 318.30 283.40 L 323.69 290.37 L 329.43 297.06 L 335.52 303.48 L 341.94 309.57 L 348.63 315.31 L 355.60 320.70 L 362.87 325.74 L 370.44 330.45 L 378.22 334.75 L 386.22 338.63 L 394.44 342.11 L 402.92 345.18 L 411.64 347.84 L 420.44 350.02 L 429.41 351.73 L 438.57 352.97 L 447.92 353.73 L 457.50 354.00 L 467.08 353.73 L 476.43 352.97 L 485.59 351.73 L 494.56 350.02 L 503.36 347.84 L 512.08 345.18 L 520.56 342.11 L 528.78 338.63 L 536.78 334.75 L 544.56 330.45 L 552.13 325.74 L 559.40 320.70 L 566.37 315.31 L 573.06 309.57 L 579.48 303.48 L 585.57 297.06 L 591.31 290.37 L 596.70 283.40 L 601.74 276.13 L 606.45 268.56 L 610.75 260.78 L 614.63 252.78 L 618.11 244.56 L 621.18 236.08 L 623.84 227.36 L 626.02 218.56 L 627.73 209.59 L 628.97 200.43 L 629.73 191.08 L 630.00 181.50 L 629.73 171.92 L 628.97 162.57 L 627.73 153.41 L 626.02 144.44 L 623.84 135.64 L 621.18 126.92 L 618.11 118.44 L 614.63 110.22 L 610.75 102.22 L 606.45 94.44 L 601.74 86.87 L 596.70 79.60 L 591.31 72.63 L 585.57 65.94 L 579.48 59.52 L 573.06 53.43 L 566.37 47.69 L 559.40 42.30 L 552.13 37.26 L 544.56 32.55 L 536.78 28.25 L 528.78 24.37 L 520.56 20.89 L 512.08 17.82 L 503.36 15.16 L 494.56 12.98 L 485.59 11.27 L 476.43 10.03 L 467.08 9.27 L 457.50 9.00 Z" fill="#000000" fill-rule="nonzero" group-id="1,2" id="椭圆形" node-id="20" stroke="none" target-height="351" target-width="351" target-x="282" target-y="6"></path><path d="M 607.45 88.09 L 622.12 86.54 L 635.11 85.70 L 646.57 85.50 L 656.64 85.85 L 665.22 86.63 L 672.73 87.78 L 679.28 89.24 L 684.96 90.98 L 689.87 92.95 L 694.09 95.14 L 697.70 97.49 L 700.75 100.01 L 703.30 102.69 L 705.40 105.54 L 707.07 108.59 L 708.28 111.74 L 709.07 114.98 L 709.45 118.35 L 709.41 121.87 L 708.76 126.51 L 707.46 131.29 L 705.45 136.26 L 702.92 141.00 L 699.79 145.76 L 696.00 150.54 L 691.83 155.00 L 687.14 159.31 L 681.88 163.47 L 674.16 168.76 L 663.10 175.62 L 650.88 182.69 L 636.02 190.85 L 620.29 199.12 L 602.66 208.04 L 584.42 216.94 L 565.01 226.08 L 545.26 235.04 L 525.10 243.84 L 503.02 253.07 L 481.45 261.67 L 460.39 269.66 L 439.16 277.27 L 418.64 284.16 L 398.82 290.36 L 378.83 296.12 L 359.76 301.08 L 341.57 305.30 L 327.70 308.13 L 314.47 310.48 L 301.85 312.37 L 289.81 313.82 L 276.64 314.96 L 265.20 315.46 L 255.30 315.41 L 246.79 314.88 L 239.51 313.95 L 233.33 312.68 L 228.07 311.11 L 223.66 309.27 L 219.99 307.21 L 216.97 304.94 L 214.53 302.46 L 212.59 299.76 L 211.12 296.83 L 210.11 293.61 L 209.57 290.01 L 209.57 286.03 L 210.16 281.59 L 211.43 276.61 L 213.47 271.02 L 216.43 264.72 L 220.43 257.64 L 224.81 250.87 L 230.19 243.37 L 236.68 235.09 L 244.40 225.95 L 253.48 215.90 L 264.06 204.85 L 264.55 204.51 L 265.11 204.40 L 265.67 204.50 L 266.18 204.83 L 266.51 205.33 L 266.63 205.89 L 266.52 206.45 L 266.20 206.95 L 253.91 219.86 L 243.70 231.36 L 235.35 241.58 L 228.63 250.62 L 223.36 258.61 L 219.38 265.55 L 216.45 271.66 L 214.43 277.04 L 213.17 281.77 L 212.58 285.94 L 212.55 289.64 L 213.03 292.94 L 213.92 295.75 L 215.25 298.34 L 217.03 300.73 L 219.31 302.94 L 222.15 304.99 L 225.64 306.86 L 229.88 308.55 L 234.98 310.00 L 240.88 311.14 L 247.85 311.98 L 256.04 312.43 L 265.60 312.45 L 276.70 311.94 L 289.50 310.84 L 301.47 309.39 L 314.02 307.51 L 327.20 305.17 L 341.01 302.35 L 359.12 298.15 L 378.11 293.20 L 398.04 287.46 L 417.79 281.28 L 438.23 274.41 L 459.40 266.83 L 480.40 258.86 L 501.90 250.29 L 523.92 241.08 L 527.95 239.36 L 547.62 230.70 L 566.83 221.93 L 585.70 213.00 L 603.38 204.33 L 620.48 195.64 L 635.71 187.61 L 650.09 179.69 L 661.92 172.83 L 672.62 166.18 L 680.11 161.05 L 685.12 157.09 L 689.59 153.00 L 693.54 148.78 L 697.15 144.27 L 700.13 139.80 L 702.54 135.37 L 704.47 130.72 L 705.74 126.27 L 706.38 121.99 L 706.46 118.74 L 706.14 115.65 L 705.44 112.70 L 704.35 109.86 L 702.82 107.07 L 700.86 104.45 L 698.46 101.97 L 695.56 99.64 L 692.10 97.44 L 688.02 95.39 L 683.32 93.56 L 677.85 91.95 L 671.52 90.59 L 664.22 89.52 L 655.86 88.79 L 646.07 88.49 L 634.90 88.71 L 622.20 89.55 L 607.83 91.07 L 607.23 91.03 L 606.72 90.77 L 606.35 90.34 L 606.15 89.77 L 606.20 89.17 L 606.46 88.66 L 606.89 88.29 L 607.45 88.09 Z" fill="#000000" fill-rule="nonzero" group-id="1,2" id="路径-295" node-id="21" stroke="none" target-height="229.96101" target-width="499.88083" target-x="209.57095" target-y="85.49898"></path><path d="M 600.08 48.75 L 604.04 43.17 L 607.36 38.02 L 610.12 33.26 L 611.77 29.67 L 613.35 24.95 L 614.80 18.86 L 616.06 11.14 L 620.38 17.99 L 624.07 22.96 L 627.22 26.42 L 629.90 28.69 L 634.07 31.40 L 639.60 34.48 L 646.76 37.98 L 643.00 41.76 L 639.89 45.38 L 637.35 48.84 L 635.33 52.18 L 634.12 54.84 L 633.03 58.33 L 632.09 62.81 L 631.37 68.49 L 630.93 75.56 L 625.90 68.08 L 621.74 62.73 L 618.33 59.08 L 615.54 56.74 L 611.25 53.99 L 606.13 51.32 L 600.08 48.75 Z" fill="#a0ffe7" fill-rule="evenodd" group-id="1,2,4,13" id="矩形" node-id="23" stroke="none" target-height="64.419975" target-width="46.674866" target-x="600.0836" target-y="11.138069"></path><path d="M 623.55 9.41 L 627.87 16.26 L 631.56 21.23 L 634.71 24.69 L 637.39 26.96 L 641.56 29.67 L 647.09 32.75 L 654.25 36.25 L 650.50 40.03 L 647.38 43.65 L 644.84 47.11 L 642.82 50.45 L 641.61 53.11 L 640.52 56.60 L 639.58 61.08 L 638.86 66.76 L 638.42 73.83 L 633.39 66.35 L 629.23 61.00 L 625.82 57.35 L 623.04 55.01 L 618.74 52.26 L 613.62 49.59 L 607.58 47.02 L 611.53 41.44 L 614.86 36.29 L 617.61 31.53 L 619.27 27.94 L 620.84 23.22 L 622.29 17.13 L 623.55 9.41 Z M 625.23 17.71 L 625.18 17.96 L 623.68 24.21 L 622.02 29.14 L 620.25 32.96 L 617.04 38.46 L 613.10 44.45 L 612.24 45.69 L 612.66 45.86 L 616.98 47.90 L 620.81 50.00 L 624.20 52.16 L 624.77 52.57 L 627.76 55.05 L 631.31 58.81 L 635.51 64.18 L 636.04 64.90 L 636.05 64.77 L 636.78 59.65 L 637.72 55.46 L 638.80 52.06 L 640.01 49.33 L 640.18 49.01 L 642.46 45.27 L 645.33 41.40 L 648.85 37.40 L 649.11 37.13 L 648.77 36.96 L 641.45 33.08 L 636.08 29.70 L 635.66 29.40 L 632.78 26.99 L 629.50 23.46 L 625.78 18.52 L 625.23 17.71 Z" fill="#000000" fill-rule="nonzero" group-id="1,2,4,14" id="矩形备份-17" node-id="24" stroke="none" target-height="64.419975" target-width="46.674866" target-x="607.57513" target-y="9.408516"></path><path d="M 220.50 151.00 L 222.23 151.16 L 223.82 151.59 L 225.29 152.30 L 227.22 153.78 L 228.70 155.71 L 229.41 157.18 L 229.84 158.77 L 230.00 160.50 L 229.84 162.23 L 229.41 163.82 L 228.70 165.29 L 227.22 167.22 L 225.29 168.70 L 223.82 169.41 L 222.23 169.84 L 220.50 170.00 L 218.77 169.84 L 217.18 169.41 L 215.71 168.70 L 213.78 167.22 L 212.30 165.29 L 211.59 163.82 L 211.16 162.23 L 211.00 160.50 L 211.16 158.77 L 211.59 157.18 L 212.30 155.71 L 213.78 153.78 L 215.71 152.30 L 217.18 151.59 L 218.77 151.16 L 220.50 151.00 Z M 220.50 154.00 L 218.73 154.25 L 217.22 154.88 L 215.90 155.90 L 214.88 157.22 L 214.25 158.74 L 214.00 160.50 L 214.25 162.26 L 214.88 163.78 L 215.90 165.10 L 217.22 166.12 L 218.74 166.75 L 220.50 167.00 L 222.26 166.75 L 223.78 166.12 L 225.10 165.10 L 226.12 163.78 L 226.75 162.27 L 227.00 160.50 L 226.75 158.74 L 226.12 157.22 L 225.10 155.90 L 223.78 154.88 L 222.27 154.25 L 220.50 154.00 Z" fill="#000000" fill-rule="nonzero" group-id="1,2" id="椭圆形" node-id="25" stroke="none" target-height="19" target-width="19" target-x="211" target-y="151"></path><path d="M 261.50 43.00 L 262.99 43.21 L 264.27 43.75 L 265.39 44.61 L 266.25 45.73 L 266.79 47.01 L 267.00 48.50 L 266.79 49.99 L 266.25 51.27 L 265.39 52.39 L 264.27 53.25 L 262.99 53.79 L 261.50 54.00 L 260.01 53.79 L 258.73 53.25 L 257.61 52.39 L 256.75 51.27 L 256.21 49.99 L 256.00 48.50 L 256.21 47.01 L 256.75 45.73 L 257.61 44.61 L 258.73 43.75 L 260.01 43.21 L 261.50 43.00 Z M 261.50 46.00 L 260.52 46.20 L 259.73 46.73 L 259.20 47.52 L 259.00 48.50 L 259.20 49.48 L 259.73 50.27 L 260.52 50.80 L 261.50 51.00 L 262.48 50.80 L 263.27 50.27 L 263.80 49.48 L 264.00 48.50 L 263.80 47.52 L 263.27 46.73 L 262.48 46.20 L 261.50 46.00 Z" fill="#000000" fill-rule="nonzero" group-id="1,2" id="椭圆形" node-id="26" stroke="none" target-height="11" target-width="11" target-x="256" target-y="43"></path><path d="M 142.00 116.00 L 141.79 121.07 L 141.19 125.96 L 140.23 130.69 L 138.89 135.28 L 137.19 139.77 L 135.18 144.05 L 132.86 148.13 L 130.23 152.03 L 126.27 156.88 L 121.88 161.27 L 117.03 165.23 L 113.13 167.86 L 109.05 170.18 L 104.77 172.19 L 100.28 173.89 L 95.69 175.23 L 90.96 176.19 L 86.07 176.79 L 81.00 177.00 L 75.93 176.79 L 71.04 176.19 L 66.31 175.23 L 61.72 173.89 L 57.23 172.19 L 52.95 170.18 L 48.87 167.86 L 44.97 165.23 L 40.12 161.27 L 35.73 156.88 L 31.77 152.03 L 29.14 148.13 L 26.82 144.05 L 24.81 139.77 L 23.11 135.28 L 21.77 130.69 L 20.81 125.96 L 20.21 121.07 L 20.00 116.00 L 20.21 110.93 L 20.81 106.04 L 21.77 101.31 L 23.11 96.72 L 24.81 92.23 L 26.82 87.95 L 29.14 83.87 L 31.77 79.97 L 35.73 75.12 L 40.12 70.73 L 44.97 66.77 L 48.87 64.14 L 52.95 61.82 L 57.23 59.81 L 61.72 58.11 L 66.31 56.77 L 71.04 55.81 L 75.93 55.21 L 81.00 55.00 L 86.07 55.21 L 90.96 55.81 L 95.69 56.77 L 100.28 58.11 L 104.77 59.81 L 109.05 61.82 L 113.13 64.14 L 117.03 66.77 L 121.88 70.73 L 126.27 75.12 L 130.23 79.97 L 132.86 83.87 L 135.18 87.95 L 137.19 92.23 L 138.89 96.72 L 140.23 101.31 L 141.19 106.04 L 141.79 110.93 L 142.00 116.00 Z" fill="#a0ffe7" fill-rule="evenodd" group-id="1,2,5,15,18" node-id="109" stroke="none" target-height="122" target-width="122" target-x="20" target-y="55"></path><g clip-path="url(#mask-4_6)" group-id="1,2,5,15,19" node-id="112"><path d="M 85.77 80.46 L 85.47 82.73 L 84.62 84.74 L 83.29 86.46 L 81.57 87.79 L 79.56 88.64 L 77.29 88.95 L 75.01 88.64 L 73.00 87.79 L 71.29 86.46 L 69.96 84.74 L 69.11 82.73 L 68.80 80.46 L 69.11 78.19 L 69.96 76.18 L 71.29 74.46 L 73.00 73.13 L 75.01 72.28 L 77.29 71.97 L 79.56 72.28 L 81.57 73.13 L 83.29 74.46 L 84.62 76.18 L 85.47 78.19 L 85.77 80.46 Z" fill="#57e3bf" fill-rule="evenodd" group-id="1,2,5,15,19" id="椭圆形" node-id="32" stroke="none" target-height="16.973915" target-width="16.973907" target-x="68.8" target-y="71.973915"></path></g><g clip-path="url(#mask-4_7)" group-id="1,2,5,15,20" node-id="116"><path d="M 40.16 103.27 L 39.97 104.57 L 39.51 105.68 L 38.76 106.65 L 37.79 107.40 L 36.68 107.86 L 35.38 108.04 L 34.09 107.86 L 32.97 107.40 L 32.01 106.65 L 31.26 105.68 L 30.79 104.57 L 30.61 103.27 L 30.79 101.97 L 31.26 100.86 L 32.01 99.89 L 32.97 99.14 L 34.09 98.68 L 35.38 98.50 L 36.68 98.68 L 37.79 99.14 L 38.76 99.89 L 39.51 100.86 L 39.97 101.97 L 40.16 103.27 Z" fill="#57e3bf" fill-rule="evenodd" group-id="1,2,5,15,20" id="椭圆形" node-id="33" stroke="none" target-height="9.547829" target-width="9.547825" target-x="30.608696" target-y="98.49565"></path></g><g clip-path="url(#mask-4_8)" group-id="1,2,5,15,21" node-id="120"><path d="M 81.53 134.57 L 81.22 136.84 L 80.37 138.85 L 79.04 140.57 L 77.33 141.89 L 75.32 142.74 L 73.04 143.05 L 70.77 142.74 L 68.76 141.89 L 67.04 140.57 L 65.72 138.85 L 64.86 136.84 L 64.56 134.57 L 64.86 132.29 L 65.72 130.28 L 67.04 128.56 L 68.76 127.24 L 70.77 126.39 L 73.04 126.08 L 75.32 126.39 L 77.33 127.24 L 79.04 128.56 L 80.37 130.28 L 81.22 132.29 L 81.53 134.57 Z" fill="#57e3bf" fill-rule="evenodd" group-id="1,2,5,15,21" id="椭圆形" node-id="34" stroke="none" target-height="16.973923" target-width="16.973915" target-x="64.55652" target-y="126.07826"></path></g><g clip-path="url(#mask-4_9)" group-id="1,2,5,15,22" node-id="124"><path d="M 113.36 111.76 L 113.06 113.21 L 112.27 114.38 L 111.10 115.17 L 109.64 115.47 L 108.19 115.17 L 107.02 114.38 L 106.23 113.21 L 105.93 111.76 L 106.23 110.30 L 107.02 109.13 L 108.19 108.34 L 109.64 108.04 L 111.10 108.34 L 112.27 109.13 L 113.06 110.30 L 113.36 111.76 Z" fill="#57e3bf" fill-rule="evenodd" group-id="1,2,5,15,22" id="椭圆形" node-id="35" stroke="none" target-height="7.4260864" target-width="7.4260864" target-x="105.930435" target-y="108.04348"></path></g><g clip-path="url(#mask-4_10)" group-id="1,2,5,15,23" node-id="128"><path d="M 123.97 166.39 L 123.66 169.68 L 122.84 172.70 L 121.50 175.49 L 119.71 178.02 L 117.56 180.17 L 115.03 181.96 L 112.24 183.30 L 109.22 184.12 L 105.93 184.43 L 102.64 184.12 L 99.62 183.30 L 96.83 181.96 L 94.30 180.17 L 92.15 178.02 L 90.36 175.49 L 89.02 172.70 L 88.20 169.68 L 87.90 166.39 L 88.20 163.10 L 89.02 160.08 L 90.36 157.29 L 92.15 154.76 L 94.30 152.61 L 96.83 150.82 L 99.62 149.49 L 102.64 148.66 L 105.93 148.36 L 109.22 148.66 L 112.24 149.49 L 115.03 150.82 L 117.56 152.61 L 119.71 154.76 L 121.50 157.29 L 122.84 160.08 L 123.66 163.10 L 123.97 166.39 Z" fill="#57e3bf" fill-rule="evenodd" group-id="1,2,5,15,23" id="椭圆形" node-id="36" stroke="none" target-height="36.069565" target-width="36.069565" target-x="87.89565" target-y="148.35652"></path></g><path d="M 98.00 55.00 L 103.07 55.21 L 107.96 55.81 L 112.69 56.77 L 117.28 58.11 L 121.77 59.81 L 126.05 61.82 L 130.13 64.14 L 134.03 66.77 L 138.88 70.73 L 143.27 75.12 L 147.23 79.97 L 149.86 83.87 L 152.18 87.95 L 154.19 92.23 L 155.89 96.72 L 157.23 101.31 L 158.19 106.04 L 158.79 110.93 L 159.00 116.00 L 158.79 121.07 L 158.19 125.96 L 157.23 130.69 L 155.89 135.28 L 154.19 139.77 L 152.18 144.05 L 149.86 148.13 L 147.23 152.03 L 143.27 156.88 L 138.88 161.27 L 134.03 165.23 L 130.13 167.86 L 126.05 170.18 L 121.77 172.19 L 117.28 173.89 L 112.69 175.23 L 107.96 176.19 L 103.07 176.79 L 98.00 177.00 L 92.93 176.79 L 88.04 176.19 L 83.31 175.23 L 78.72 173.89 L 74.23 172.19 L 69.95 170.18 L 65.87 167.86 L 61.97 165.23 L 57.12 161.27 L 52.73 156.88 L 48.77 152.03 L 46.14 148.13 L 43.82 144.05 L 41.81 139.77 L 40.11 135.28 L 38.77 130.69 L 37.81 125.96 L 37.21 121.07 L 37.00 116.00 L 37.21 110.93 L 37.81 106.04 L 38.77 101.31 L 40.11 96.72 L 41.81 92.23 L 43.82 87.95 L 46.14 83.87 L 48.77 79.97 L 52.73 75.12 L 57.12 70.73 L 61.97 66.77 L 65.87 64.14 L 69.95 61.82 L 74.23 59.81 L 78.72 58.11 L 83.31 56.77 L 88.04 55.81 L 92.93 55.21 L 98.00 55.00 Z M 98.00 58.00 L 93.18 58.20 L 88.53 58.77 L 84.03 59.69 L 79.67 60.96 L 74.02 63.18 L 68.72 65.92 L 63.75 69.19 L 59.13 72.95 L 54.95 77.13 L 51.19 81.75 L 47.92 86.72 L 45.18 92.02 L 42.96 97.67 L 41.69 102.03 L 40.77 106.53 L 40.20 111.18 L 40.00 116.00 L 40.20 120.82 L 40.77 125.47 L 41.69 129.97 L 42.96 134.33 L 45.18 139.98 L 47.92 145.28 L 51.19 150.25 L 54.95 154.87 L 59.13 159.05 L 63.75 162.81 L 68.72 166.08 L 74.02 168.82 L 79.67 171.04 L 84.03 172.31 L 88.53 173.23 L 93.18 173.80 L 98.00 174.00 L 102.82 173.80 L 107.47 173.23 L 111.97 172.31 L 116.33 171.04 L 121.98 168.82 L 127.28 166.08 L 132.25 162.81 L 136.87 159.05 L 141.05 154.87 L 144.81 150.25 L 148.08 145.28 L 150.82 139.98 L 153.04 134.33 L 154.31 129.97 L 155.23 125.47 L 155.80 120.82 L 156.00 116.00 L 155.80 111.18 L 155.23 106.53 L 154.31 102.03 L 153.04 97.67 L 150.82 92.02 L 148.08 86.72 L 144.81 81.75 L 141.05 77.13 L 136.87 72.95 L 132.25 69.19 L 127.28 65.92 L 121.98 63.18 L 116.33 60.96 L 111.97 59.69 L 107.47 58.77 L 102.82 58.20 L 98.00 58.00 Z" fill="#000000" fill-rule="nonzero" group-id="1,2,5" id="椭圆形备份-15" node-id="37" stroke="none" target-height="122" target-width="122" target-x="37" target-y="55"></path><path d="M 159.24 97.51 L 160.47 97.34 L 168.20 96.50 L 174.59 96.19 L 179.83 96.31 L 184.07 96.78 L 187.71 97.60 L 190.50 98.67 L 192.62 99.93 L 194.18 101.37 L 195.27 103.00 L 195.91 104.82 L 196.11 106.75 L 195.86 108.87 L 195.10 111.22 L 193.73 113.86 L 191.72 116.74 L 189.01 119.87 L 185.46 123.30 L 180.93 127.05 L 174.06 131.97 L 166.25 136.80 L 157.42 141.54 L 148.36 145.78 L 138.63 149.75 L 128.19 153.44 L 117.59 156.63 L 106.63 159.39 L 95.29 161.71 L 83.86 163.49 L 72.36 164.70 L 60.80 165.33 L 58.73 165.38 L 45.72 165.49 L 35.05 165.20 L 26.40 164.57 L 19.50 163.69 L 13.36 162.42 L 8.81 160.96 L 5.53 159.38 L 3.25 157.72 L 1.75 155.99 L 0.83 154.11 L 0.48 152.14 L 0.69 150.01 L 1.54 147.62 L 3.18 144.89 L 5.84 141.73 L 9.87 137.95 L 15.56 133.52 L 23.25 128.32 L 33.38 122.27 L 33.95 122.08 L 34.51 122.13 L 35.03 122.38 L 35.42 122.83 L 35.61 123.40 L 35.57 123.97 L 35.31 124.48 L 34.86 124.88 L 33.42 125.70 L 24.37 131.19 L 17.48 135.84 L 12.39 139.75 L 8.76 143.04 L 6.22 145.86 L 4.64 148.18 L 3.80 150.10 L 3.51 151.71 L 3.67 153.09 L 4.25 154.34 L 5.52 155.75 L 7.57 157.14 L 10.69 158.50 L 15.18 159.80 L 21.44 160.95 L 28.33 161.73 L 36.98 162.27 L 47.67 162.49 L 60.71 162.33 L 72.12 161.70 L 83.46 160.52 L 94.74 158.76 L 105.93 156.48 L 116.74 153.76 L 127.18 150.61 L 137.48 146.98 L 147.06 143.07 L 155.99 138.91 L 164.68 134.25 L 172.35 129.50 L 179.09 124.68 L 184.40 120.19 L 188.18 116.32 L 190.74 112.98 L 192.29 110.14 L 193.00 107.84 L 193.06 105.95 L 192.60 104.35 L 191.76 103.15 L 190.46 102.06 L 188.59 101.07 L 185.98 100.22 L 182.43 99.56 L 178.42 99.23 L 173.41 99.22 L 167.22 99.61 L 159.66 100.49 L 159.06 100.45 L 158.55 100.20 L 158.16 99.78 L 157.96 99.21 L 158.00 98.61 L 158.25 98.10 L 158.67 97.72 L 159.24 97.51 Z" fill="#060606" fill-rule="nonzero" group-id="1,2,5" id="路径-290" node-id="38" stroke="none" target-height="69.30052" target-width="195.63655" target-x="0.4758209" target-y="96.19142"></path><path d="M 103.46 234.04 L 109.23 229.47 L 114.18 225.18 L 118.40 221.17 L 121.14 218.01 L 124.07 213.74 L 127.19 208.12 L 130.51 200.91 L 132.91 207.17 L 135.19 212.14 L 137.33 216.02 L 139.35 218.98 L 141.25 221.17 L 145.12 224.74 L 150.40 228.99 L 157.39 234.04 L 152.28 236.91 L 147.94 239.74 L 144.29 242.55 L 141.25 245.33 L 139.23 247.69 L 137.14 250.87 L 134.99 255.05 L 132.77 260.41 L 130.51 267.18 L 126.90 258.78 L 123.70 252.62 L 120.88 248.26 L 118.40 245.33 L 114.40 241.69 L 109.47 237.93 L 103.46 234.04 Z" fill="#a0ffe7" fill-rule="evenodd" group-id="1,2,5,16" id="矩形" node-id="39" stroke="none" target-height="66.27005" target-width="53.93154" target-x="103.46107" target-y="200.905"></path><path d="M 139.00 200.91 L 141.40 207.17 L 143.68 212.14 L 145.82 216.02 L 147.84 218.98 L 149.74 221.17 L 153.61 224.74 L 158.89 228.99 L 165.88 234.04 L 160.77 236.91 L 156.43 239.74 L 152.78 242.55 L 149.74 245.33 L 147.72 247.69 L 145.63 250.87 L 143.48 255.05 L 141.26 260.41 L 139.00 267.18 L 138.49 265.91 L 135.05 258.07 L 131.99 252.28 L 129.28 248.14 L 126.89 245.33 L 122.89 241.69 L 117.96 237.93 L 111.95 234.04 L 117.72 229.47 L 122.67 225.18 L 126.89 221.17 L 129.63 218.01 L 132.56 213.74 L 135.68 208.12 L 139.00 200.91 Z M 138.77 208.65 L 138.52 209.15 L 136.01 213.81 L 133.59 217.65 L 131.26 220.78 L 129.01 223.29 L 123.94 228.08 L 117.87 233.22 L 117.17 233.77 L 117.85 234.22 L 121.93 237.11 L 125.47 239.95 L 128.52 242.73 L 129.01 243.21 L 131.08 245.56 L 133.32 248.71 L 135.74 252.82 L 138.36 258.06 L 138.68 258.74 L 138.87 258.25 L 141.02 253.22 L 143.15 249.17 L 145.26 245.97 L 147.35 243.49 L 147.62 243.21 L 150.90 240.22 L 154.82 237.21 L 159.45 234.20 L 160.24 233.73 L 160.19 233.69 L 153.05 228.19 L 148.00 223.66 L 147.62 223.29 L 145.60 220.98 L 143.50 217.97 L 141.32 214.13 L 139.05 209.31 L 138.77 208.65 Z" fill="#000000" fill-rule="nonzero" group-id="1,2,5,17" id="矩形备份-17" node-id="40" stroke="none" target-height="66.27005" target-width="53.93155" target-x="111.94995" target-y="200.905"></path></g></g></svg>